<svg width="181" height="45" viewBox="0 0 181 45" fill="none" xmlns="http://www.w3.org/2000/svg">
<g clip-path="url(#clip0_366_38)">
<path d="M23.5227 25.1938C24.5855 22.9308 26.2151 21.2335 28.4115 20.1197C28.6063 20.0136 29.0491 20.0843 29.2085 20.2611C34.2567 25.2645 39.2872 30.2857 44.2999 35.3068C45.1856 36.1908 45.1678 37.2162 44.2999 38.1179C43.5028 38.9489 42.688 39.7622 41.8555 40.5578C40.8459 41.5302 39.854 41.5302 38.8443 40.5224C36.2051 37.9058 33.5836 35.2714 30.9444 32.6548C28.6949 30.4094 26.4276 28.1641 24.1781 25.901C23.9655 25.6889 23.753 25.4413 23.5227 25.1938Z" fill="#DD131A"/>
<path d="M19.4133 7.93848C22.6724 11.1916 25.8607 14.374 29.1199 17.6448C25.4711 19.1476 22.7964 21.7466 21.3262 25.3533C18.1025 22.1532 14.9142 18.9531 11.6727 15.7354C15.2684 14.2679 17.8899 11.6159 19.4133 7.93848Z" fill="#DD131A"/>
<path d="M24.3551 0C24.8688 0.28288 25.3825 0.45968 25.7367 0.81328C29.2616 4.29624 32.7688 7.79688 36.2582 11.2975C37.1438 12.1815 37.1438 13.2246 36.2936 14.1086C35.4611 14.975 34.6109 15.8413 33.7252 16.6722C32.8573 17.5032 31.83 17.5032 30.962 16.6546C27.4195 13.1539 23.8946 9.6356 20.3875 6.0996C19.5372 5.23328 19.5372 4.20784 20.3697 3.3592C21.22 2.45752 22.0879 1.57352 23.009 0.74256C23.3632 0.42432 23.8592 0.2652 24.3551 0Z" fill="#DD131A"/>
<path d="M16.2781 33.4152C15.7644 33.1147 15.2331 32.9379 14.8965 32.5843C11.3894 29.1367 7.91764 25.6537 4.44591 22.1708C3.52484 21.2337 3.50713 20.226 4.41049 19.2889C5.22528 18.4403 6.05779 17.6093 6.908 16.796C7.79365 15.9297 8.83871 15.912 9.72435 16.796C13.2315 20.279 16.7387 23.7796 20.2281 27.2803C21.1314 28.182 21.1314 29.1897 20.2635 30.0914C19.431 30.9754 18.5808 31.8417 17.6951 32.6373C17.3232 32.9909 16.8095 33.15 16.2781 33.4152Z" fill="#DD131A"/>
<path d="M0 44.9956C0 43.758 0 42.5734 0 41.3535C8.76787 41.3535 17.518 41.3535 26.339 41.3535C26.339 42.5381 26.339 43.7403 26.339 44.9956C17.5712 44.9956 8.82101 44.9956 0 44.9956Z" fill="#DD131A"/>
<path d="M22.6548 39.3558C16.3136 39.3558 10.0963 39.3558 3.80828 39.3558C3.80828 38.5779 3.71971 37.8177 3.82599 37.0751C3.96769 36.1027 4.71163 35.59 5.82755 35.5723C8.04165 35.5546 10.2558 35.5723 12.4699 35.5723C15.0382 35.5723 17.6066 35.5723 20.175 35.5723C22.0525 35.5723 22.6725 36.1911 22.6725 38.0475C22.6548 38.4718 22.6548 38.8785 22.6548 39.3558Z" fill="#DD131A"/>
</g>
<path d="M168.67 36.1602L160.59 16.6802H166.27L171.63 31.5602H169.71L175.27 16.6802H180.99L172.39 36.1202L168.67 36.1602ZM163.31 44.0802L169.19 31.6402L172.39 36.1202L168.87 44.0802H163.31Z" fill="white"/>
<path d="M149.661 36.0001V14.6001C149.661 13.0535 149.995 11.6935 150.661 10.5201C151.328 9.32014 152.275 8.37347 153.501 7.68014C154.728 6.9868 156.168 6.64014 157.821 6.64014C159.075 6.64014 160.155 6.85347 161.061 7.28014C161.968 7.7068 162.781 8.29347 163.501 9.04014L160.181 12.4001C159.888 12.1068 159.568 11.8801 159.221 11.7201C158.875 11.5601 158.435 11.4801 157.901 11.4801C156.941 11.4801 156.195 11.7468 155.661 12.2801C155.155 12.7868 154.901 13.5201 154.901 14.4801V36.0001H149.661ZM145.181 21.2801V16.6801H160.621V21.2801H145.181Z" fill="white"/>
<path d="M137.98 36.0001V16.6801H143.26V36.0001H137.98ZM140.62 13.5601C139.766 13.5601 139.06 13.2801 138.5 12.7201C137.94 12.1334 137.66 11.4134 137.66 10.5601C137.66 9.73339 137.94 9.02672 138.5 8.44006C139.06 7.85339 139.766 7.56006 140.62 7.56006C141.5 7.56006 142.206 7.85339 142.74 8.44006C143.3 9.02672 143.58 9.73339 143.58 10.5601C143.58 11.4134 143.3 12.1334 142.74 12.7201C142.206 13.2801 141.5 13.5601 140.62 13.5601Z" fill="white"/>
<path d="M128.897 36.0001V7.08008H134.137V36.0001H128.897Z" fill="white"/>
<path d="M104.115 36.0002L96.8745 16.6802H102.155L106.875 30.7202L105.275 30.7602L110.115 16.6802H113.915L118.755 30.7602L117.155 30.7202L121.875 16.6802H127.155L119.955 36.0002H116.155L111.275 22.6402H112.755L107.875 36.0002H104.115Z" fill="white"/>
<path d="M84.3188 36.4003C82.5588 36.4003 80.9722 35.9603 79.5588 35.0803C78.1455 34.2003 77.0388 33.0003 76.2388 31.4803C75.4388 29.9603 75.0388 28.2536 75.0388 26.3603C75.0388 24.4403 75.4388 22.7203 76.2388 21.2003C77.0388 19.6803 78.1455 18.4803 79.5588 17.6003C80.9722 16.7203 82.5588 16.2803 84.3188 16.2803C85.7055 16.2803 86.9455 16.5603 88.0388 17.1203C89.1321 17.6803 89.9988 18.4669 90.6388 19.4803C91.3055 20.4669 91.6655 21.5869 91.7188 22.8403V29.8003C91.6655 31.0803 91.3055 32.2136 90.6388 33.2003C89.9988 34.1869 89.1321 34.9736 88.0388 35.5603C86.9455 36.1203 85.7055 36.4003 84.3188 36.4003ZM85.2788 31.5603C86.7455 31.5603 87.9322 31.0803 88.8388 30.1203C89.7455 29.1336 90.1988 27.8669 90.1988 26.3203C90.1988 25.3069 89.9855 24.4136 89.5588 23.6403C89.1588 22.8403 88.5855 22.2269 87.8388 21.8003C87.1188 21.3469 86.2655 21.1203 85.2788 21.1203C84.3188 21.1203 83.4655 21.3469 82.7188 21.8003C81.9988 22.2269 81.4255 22.8403 80.9988 23.6403C80.5988 24.4136 80.3988 25.3069 80.3988 26.3203C80.3988 27.3603 80.5988 28.2803 80.9988 29.0803C81.4255 29.8536 81.9988 30.4669 82.7188 30.9203C83.4655 31.3469 84.3188 31.5603 85.2788 31.5603ZM89.9188 36.0003V30.8003L90.7588 26.0803L89.9188 21.4403V16.6803H95.1188V36.0003H89.9188Z" fill="white"/>
<path d="M55.8801 36.0004V7.88037H61.3201V36.0004H55.8801ZM59.8801 36.0004V31.1604H74.2001V36.0004H59.8801Z" fill="white"/>
<defs>
<clipPath id="clip0_366_38">
<rect width="44.9553" height="44.9956" fill="white"/>
</clipPath>
</defs>
</svg>
