<svg width="193" height="57" viewBox="0 0 193 57" fill="none" xmlns="http://www.w3.org/2000/svg">
<rect width="56.864" height="57.0032" rx="28.432" fill="#DD131A"/>
<g clip-path="url(#clip0_545_153)">
<path d="M29.7847 31.3465C30.7289 29.3309 32.1768 27.8192 34.1283 26.8271C34.3014 26.7326 34.6949 26.7956 34.8365 26.9531C39.3218 31.4095 43.7914 35.8817 48.2452 40.3539C49.0321 41.1413 49.0164 42.0546 48.2452 42.8577C47.537 43.5978 46.8131 44.3222 46.0734 45.0308C45.1763 45.8969 44.295 45.8969 43.3979 44.9993C41.053 42.6687 38.7238 40.3224 36.3788 37.9918C34.3801 35.992 32.3657 33.9921 30.367 31.9764C30.1781 31.7875 29.9893 31.567 29.7847 31.3465Z" fill="white"/>
<path d="M26.1333 15.9771C29.0291 18.8745 31.8619 21.709 34.7577 24.6222C31.5157 25.9607 29.1393 28.2756 27.833 31.488C24.9687 28.6378 22.1359 25.7875 19.2559 22.9215C22.4507 21.6145 24.7799 19.2525 26.1333 15.9771Z" fill="white"/>
<path d="M30.524 8.90674C30.9804 9.15869 31.4368 9.31616 31.7516 9.63111C34.8834 12.7333 37.9995 15.8512 41.0999 18.9692C41.8868 19.7565 41.8868 20.6856 41.1313 21.473C40.3917 22.2446 39.6362 23.0162 38.8494 23.7563C38.0782 24.4964 37.1654 24.4964 36.3942 23.7406C33.2467 20.6226 30.1148 17.4889 26.9987 14.3395C26.2433 13.5679 26.2433 12.6546 26.983 11.8987C27.7384 11.0956 28.5096 10.3082 29.3279 9.56812C29.6427 9.28467 30.0833 9.14295 30.524 8.90674Z" fill="white"/>
<path d="M23.3476 38.6687C22.8912 38.401 22.4191 38.2435 22.12 37.9286C19.0039 34.8579 15.9193 31.7557 12.8347 28.6535C12.0163 27.8189 12.0006 26.9213 12.8032 26.0867C13.5271 25.3309 14.2668 24.5907 15.0222 23.8664C15.8091 23.0948 16.7377 23.079 17.5246 23.8664C20.6407 26.9686 23.7568 30.0865 26.8571 33.2044C27.6598 34.0075 27.6598 34.9051 26.8886 35.7082C26.1489 36.4956 25.3935 37.2672 24.6066 37.9758C24.2761 38.2908 23.8197 38.4325 23.3476 38.6687Z" fill="white"/>
<path d="M8.88477 48.9832C8.88477 47.8809 8.88477 46.8258 8.88477 45.7393C16.675 45.7393 24.4495 45.7393 32.287 45.7393C32.287 46.7943 32.287 47.8651 32.287 48.9832C24.4968 48.9832 16.7222 48.9832 8.88477 48.9832Z" fill="white"/>
<path d="M29.0137 43.9599C23.3795 43.9599 17.8555 43.9599 12.2685 43.9599C12.2685 43.267 12.1898 42.5899 12.2843 41.9285C12.4102 41.0624 13.0712 40.6058 14.0627 40.59C16.0299 40.5743 17.9971 40.59 19.9644 40.59C22.2464 40.59 24.5284 40.59 26.8103 40.59C28.4786 40.59 29.0294 41.1412 29.0294 42.7946C29.0137 43.1725 29.0137 43.5347 29.0137 43.9599Z" fill="white"/>
</g>
<path d="M180.535 39.52L172.455 20.04H178.135L183.495 34.92H181.575L187.135 20.04H192.855L184.255 39.48L180.535 39.52ZM175.175 47.44L181.055 35L184.255 39.48L180.735 47.44H175.175Z" fill="white"/>
<path d="M161.525 39.36V17.96C161.525 16.4133 161.859 15.0533 162.525 13.88C163.192 12.68 164.139 11.7333 165.365 11.04C166.592 10.3467 168.032 10 169.685 10C170.939 10 172.019 10.2133 172.925 10.64C173.832 11.0667 174.645 11.6533 175.365 12.4L172.045 15.76C171.752 15.4667 171.432 15.24 171.085 15.08C170.739 14.92 170.299 14.84 169.765 14.84C168.805 14.84 168.059 15.1067 167.525 15.64C167.019 16.1467 166.765 16.88 166.765 17.84V39.36H161.525ZM157.045 24.64V20.04H172.485V24.64H157.045Z" fill="white"/>
<path d="M149.843 39.3599V20.0399H155.123V39.3599H149.843ZM152.483 16.9199C151.63 16.9199 150.923 16.6399 150.363 16.0799C149.803 15.4933 149.523 14.7733 149.523 13.9199C149.523 13.0933 149.803 12.3866 150.363 11.7999C150.923 11.2133 151.63 10.9199 152.483 10.9199C153.363 10.9199 154.07 11.2133 154.603 11.7999C155.163 12.3866 155.443 13.0933 155.443 13.9199C155.443 14.7733 155.163 15.4933 154.603 16.0799C154.07 16.6399 153.363 16.9199 152.483 16.9199Z" fill="white"/>
<path d="M140.761 39.3599V10.4399H146.001V39.3599H140.761Z" fill="white"/>
<path d="M115.978 39.36L108.738 20.04H114.018L118.738 34.08L117.138 34.12L121.978 20.04H125.778L130.618 34.12L129.018 34.08L133.738 20.04H139.018L131.818 39.36H128.018L123.138 26H124.618L119.738 39.36H115.978Z" fill="white"/>
<path d="M96.1828 39.7601C94.4228 39.7601 92.8362 39.3201 91.4228 38.4401C90.0095 37.5601 88.9028 36.3601 88.1028 34.8401C87.3028 33.3201 86.9028 31.6135 86.9028 29.7201C86.9028 27.8001 87.3028 26.0801 88.1028 24.5601C88.9028 23.0401 90.0095 21.8401 91.4228 20.9601C92.8362 20.0801 94.4228 19.6401 96.1828 19.6401C97.5695 19.6401 98.8095 19.9201 99.9028 20.4801C100.996 21.0401 101.863 21.8268 102.503 22.8401C103.169 23.8268 103.529 24.9468 103.583 26.2001V33.1601C103.529 34.4401 103.169 35.5735 102.503 36.5601C101.863 37.5468 100.996 38.3335 99.9028 38.9201C98.8095 39.4801 97.5695 39.7601 96.1828 39.7601ZM97.1428 34.9201C98.6095 34.9201 99.7962 34.4401 100.703 33.4801C101.609 32.4935 102.063 31.2268 102.063 29.6801C102.063 28.6668 101.85 27.7735 101.423 27.0001C101.023 26.2001 100.45 25.5868 99.7028 25.1601C98.9828 24.7068 98.1295 24.4801 97.1428 24.4801C96.1828 24.4801 95.3295 24.7068 94.5828 25.1601C93.8628 25.5868 93.2895 26.2001 92.8628 27.0001C92.4628 27.7735 92.2628 28.6668 92.2628 29.6801C92.2628 30.7201 92.4628 31.6401 92.8628 32.4401C93.2895 33.2135 93.8628 33.8268 94.5828 34.2801C95.3295 34.7068 96.1828 34.9201 97.1428 34.9201ZM101.783 39.3601V34.1601L102.623 29.4401L101.783 24.8001V20.0401H106.983V39.3601H101.783Z" fill="white"/>
<path d="M67.7441 39.3602V11.2402H73.1841V39.3602H67.7441ZM71.7441 39.3602V34.5202H86.0641V39.3602H71.7441Z" fill="white"/>
<defs>
<clipPath id="clip0_545_153">
<rect width="39.9428" height="40.0765" fill="white" transform="translate(8.88477 8.90674)"/>
</clipPath>
</defs>
</svg>
