<svg width="193" height="57" viewBox="0 0 193 57" fill="none" xmlns="http://www.w3.org/2000/svg">
<rect width="56.864" height="57.0032" rx="28.432" fill="#DD131A"/>
<g clip-path="url(#clip0_223_88)">
<path d="M29.7849 31.3465C30.7292 29.3309 32.1771 27.8192 34.1286 26.8271C34.3017 26.7326 34.6951 26.7956 34.8368 26.9531C39.3221 31.4095 43.7916 35.8817 48.2455 40.3539C49.0324 41.1413 49.0166 42.0546 48.2455 42.8577C47.5373 43.5978 46.8133 44.3222 46.0736 45.0308C45.1766 45.8969 44.2953 45.8969 43.3982 44.9993C41.0532 42.6687 38.724 40.3224 36.3791 37.9918C34.3804 35.992 32.3659 33.9921 30.3672 31.9764C30.1784 31.7875 29.9895 31.567 29.7849 31.3465Z" fill="white"/>
<path d="M26.1338 15.9771C29.0296 18.8745 31.8624 21.709 34.7582 24.6222C31.5162 25.9607 29.1397 28.2756 27.8335 31.488C24.9692 28.6378 22.1364 25.7875 19.2563 22.9215C22.4511 21.6145 24.7803 19.2525 26.1338 15.9771Z" fill="white"/>
<path d="M30.5245 8.90674C30.9809 9.15869 31.4373 9.31616 31.7521 9.63111C34.8839 12.7333 38 15.8512 41.1004 18.9692C41.8873 19.7565 41.8873 20.6856 41.1318 21.473C40.3922 22.2446 39.6367 23.0162 38.8498 23.7563C38.0787 24.4964 37.1659 24.4964 36.3947 23.7406C33.2472 20.6226 30.1153 17.4889 26.9992 14.3395C26.2438 13.5679 26.2438 12.6546 26.9835 11.8987C27.7389 11.0956 28.51 10.3082 29.3284 9.56812C29.6432 9.28467 30.0838 9.14295 30.5245 8.90674Z" fill="white"/>
<path d="M23.3481 38.6689C22.8917 38.4012 22.4195 38.2438 22.1205 37.9288C19.0044 34.8581 15.9198 31.7559 12.8352 28.6537C12.0168 27.8191 12.0011 26.9216 12.8037 26.087C13.5276 25.3311 14.2673 24.591 15.0227 23.8666C15.8096 23.095 16.7382 23.0793 17.5251 23.8666C20.6412 26.9688 23.7573 30.0867 26.8576 33.2047C27.6603 34.0078 27.6603 34.9054 26.8891 35.7085C26.1494 36.4958 25.394 37.2674 24.6071 37.9761C24.2766 38.291 23.8202 38.4327 23.3481 38.6689Z" fill="white"/>
<path d="M8.88501 48.9832C8.88501 47.8809 8.88501 46.8258 8.88501 45.7393C16.6753 45.7393 24.4498 45.7393 32.2873 45.7393C32.2873 46.7943 32.2873 47.8651 32.2873 48.9832C24.497 48.9832 16.7225 48.9832 8.88501 48.9832Z" fill="white"/>
<path d="M29.0137 43.9599C23.3795 43.9599 17.8555 43.9599 12.2685 43.9599C12.2685 43.267 12.1898 42.5899 12.2843 41.9285C12.4102 41.0624 13.0712 40.6058 14.0627 40.59C16.0299 40.5743 17.9971 40.59 19.9644 40.59C22.2464 40.59 24.5284 40.59 26.8103 40.59C28.4786 40.59 29.0294 41.1412 29.0294 42.7946C29.0137 43.1725 29.0137 43.5347 29.0137 43.9599Z" fill="white"/>
</g>
<path d="M180.534 42.1599L172.454 22.6799H178.134L183.494 37.5599H181.574L187.134 22.6799H192.854L184.254 42.1199L180.534 42.1599ZM175.174 50.0799L181.054 37.6399L184.254 42.1199L180.734 50.0799H175.174Z" fill="#1D1D1D"/>
<path d="M161.525 41.9999V20.5999C161.525 19.0532 161.858 17.6932 162.525 16.5199C163.192 15.3199 164.138 14.3732 165.365 13.6799C166.592 12.9866 168.032 12.6399 169.685 12.6399C170.938 12.6399 172.018 12.8532 172.925 13.2799C173.832 13.7066 174.645 14.2932 175.365 15.0399L172.045 18.3999C171.752 18.1066 171.432 17.8799 171.085 17.7199C170.738 17.5599 170.299 17.4799 169.765 17.4799C168.805 17.4799 168.058 17.7466 167.525 18.2799C167.018 18.7866 166.765 19.5199 166.765 20.4799V41.9999H161.525ZM157.045 27.2799V22.6799H172.485V27.2799H157.045Z" fill="#1D1D1D"/>
<path d="M149.843 41.9998V22.6798H155.123V41.9998H149.843ZM152.483 19.5598C151.63 19.5598 150.923 19.2798 150.363 18.7198C149.803 18.1331 149.523 17.4131 149.523 16.5598C149.523 15.7331 149.803 15.0265 150.363 14.4398C150.923 13.8531 151.63 13.5598 152.483 13.5598C153.363 13.5598 154.07 13.8531 154.603 14.4398C155.163 15.0265 155.443 15.7331 155.443 16.5598C155.443 17.4131 155.163 18.1331 154.603 18.7198C154.07 19.2798 153.363 19.5598 152.483 19.5598Z" fill="#1D1D1D"/>
<path d="M140.76 41.9998V13.0798H146V41.9998H140.76Z" fill="#1D1D1D"/>
<path d="M115.978 41.9999L108.738 22.6799H114.018L118.738 36.7199L117.138 36.7599L121.978 22.6799H125.778L130.618 36.7599L129.018 36.7199L133.738 22.6799H139.018L131.818 41.9999H128.018L123.138 28.6399H124.618L119.738 41.9999H115.978Z" fill="#1D1D1D"/>
<path d="M96.1826 42.3998C94.4226 42.3998 92.8359 41.9598 91.4226 41.0798C90.0093 40.1998 88.9026 38.9998 88.1026 37.4798C87.3026 35.9598 86.9026 34.2531 86.9026 32.3598C86.9026 30.4398 87.3026 28.7198 88.1026 27.1998C88.9026 25.6798 90.0093 24.4798 91.4226 23.5998C92.8359 22.7198 94.4226 22.2798 96.1826 22.2798C97.5693 22.2798 98.8093 22.5598 99.9026 23.1198C100.996 23.6798 101.863 24.4665 102.503 25.4798C103.169 26.4665 103.529 27.5865 103.583 28.8398V35.7998C103.529 37.0798 103.169 38.2131 102.503 39.1998C101.863 40.1865 100.996 40.9731 99.9026 41.5598C98.8093 42.1198 97.5693 42.3998 96.1826 42.3998ZM97.1426 37.5598C98.6093 37.5598 99.7959 37.0798 100.703 36.1198C101.609 35.1331 102.063 33.8665 102.063 32.3198C102.063 31.3065 101.849 30.4131 101.423 29.6398C101.023 28.8398 100.449 28.2265 99.7026 27.7998C98.9826 27.3465 98.1293 27.1198 97.1426 27.1198C96.1826 27.1198 95.3293 27.3465 94.5826 27.7998C93.8626 28.2265 93.2893 28.8398 92.8626 29.6398C92.4626 30.4131 92.2626 31.3065 92.2626 32.3198C92.2626 33.3598 92.4626 34.2798 92.8626 35.0798C93.2893 35.8531 93.8626 36.4665 94.5826 36.9198C95.3293 37.3465 96.1826 37.5598 97.1426 37.5598ZM101.783 41.9998V36.7998L102.623 32.0798L101.783 27.4398V22.6798H106.983V41.9998H101.783Z" fill="#1D1D1D"/>
<path d="M67.7439 41.9999V13.8799H73.1839V41.9999H67.7439ZM71.7439 41.9999V37.1599H86.0639V41.9999H71.7439Z" fill="#1D1D1D"/>
<defs>
<clipPath id="clip0_223_88">
<rect width="39.9428" height="40.0765" fill="white" transform="translate(8.88501 8.90674)"/>
</clipPath>
</defs>
</svg>
